<?xml version="1.0" standalone="no"?><!DOCTYPE svg PUBLIC "-//W3C//DTD SVG 1.1//EN" "http://www.w3.org/Graphics/SVG/1.1/DTD/svg11.dtd"><svg t="1605663962761" class="icon" viewBox="0 0 1024 1024" version="1.1" xmlns="http://www.w3.org/2000/svg" p-id="6727" xmlns:xlink="http://www.w3.org/1999/xlink" width="200" height="200"><defs><style type="text/css"></style></defs><path d="M921.6 1024H102.4a102.4 102.4 0 0 1-102.4-102.4V102.4a102.4 102.4 0 0 1 102.4-102.4h819.2a102.4 102.4 0 0 1 102.4 102.4v819.2a102.4 102.4 0 0 1-102.4 102.4zM726.4 790.6304c3.712-20.48 7.04-40.5632 10.88-60.4544a32.1024 32.1024 0 0 1 30.976-25.0752c15.232 0.1408 22.528 11.2512 19.2 29.2096a5872.64 5872.64 0 0 1-9.984 56.192h29.184c1.536-7.68 3.2-14.848 4.352-22.08 2.56-15.7696 6.016-31.5264 7.168-47.424a30.2848 30.2848 0 0 0-32-35.136 54.1568 54.1568 0 0 0-44.8 16.0128c-9.088-5.2992-17.664-10.24-26.752-15.2448-5.888 35.2768-11.52 69.504-17.408 104h29.184z m-120.704-0.512a91.2 91.2 0 0 0 52.608-0.7808c19.84-5.8112 19.712-6.0672 20.48-27.5072a78.3488 78.3488 0 0 1-52.736 12.1344 26.5984 26.5984 0 0 1-22.016-15.36c-4.224-9.9456-2.304-12.9152 8.192-12.9152 21.888-0.128 43.648 0 65.536-0.256a12.2752 12.2752 0 0 0 8.576-2.8416 41.152 41.152 0 0 0-21.632-54.272 72.0256 72.0256 0 0 0-82.688 31.5264c-16.384 29.1968-6.144 61.2352 23.68 70.272z m-262.016 1.0368a8.4992 8.4992 0 0 0 10.24-8.96c3.072-18.3424 6.528-36.5568 9.984-54.8992a30.72 30.72 0 0 1 32.768-21.8368c15.232 2.8416 18.944 9.5616 16.128 29.44-2.688 18.5984-6.4 37.12-9.6 55.68h29.568c3.968-23.8976 8.576-47.36 11.52-71.3088a29.2608 29.2608 0 0 0-19.712-31.6544 46.2592 46.2592 0 0 0-41.6 3.4944c-15.744 12.6592-26.752 5.8112-38.912-3.1104a23.9104 23.9104 0 0 0-3.584-1.6768c-5.888 35.136-11.648 69.6448-17.408 104.6528 7.168 0.064 13.952-0.2048 20.608 0.1792z m-19.072-299.008c35.968 1.5488 71.808 0.7808 107.392 0.7808 2.176-8.5248 3.456-14.976 5.248-22.464h-122.88c-1.792 1.28-3.712 2.8416-5.504 4.3904 5.248 5.9392 10.24 17.0368 15.744 17.2928z m-87.68 298.624a132.672 132.672 0 0 0 45.568-1.5488c20.48-3.84 20.736-5.824 22.144-24.8064a404.7744 404.7744 0 0 1-39.68 9.8048 31.9232 31.9232 0 0 1-35.2-15.232c-4.352-9.8304-1.92-13.696 8.576-13.696 21.376 0 43.008 0.128 64.384-0.1408a11.1872 11.1872 0 0 0 8.96-3.6096c5.76-16.64 3.968-41.344-16.64-51.2-35.2-16.7936-84.864 5.8112-92.928 43.6736-6.016 27.8144 2.048 50.8032 34.816 56.7552zM102.4 660.8h55.168a20564.48 20564.48 0 0 1-22.784 129.7024h29.056c0.768-4.1344 1.664-7.616 2.304-11.2384 6.4-36.3008 13.056-72.6016 19.2-109.0432a9.3056 9.3056 0 0 1 11.392-9.8176c14.976 0.7808 29.952 0.256 45.312 0.256 1.536-7.232 3.072-13.696 4.48-20.6592H106.624c-1.408 6.72-2.688 13.1712-4.224 20.8z m211.456-421.12c-21.632-0.256-43.264 0-63.104 0-19.712 98.112-39.168 194.6752-58.752 292.5312h27.136c7.68-34.8544 15.36-68.416 23.296-103.5392 9.472-0.512 18.176-0.768 29.184-1.28-7.296 36.9152-14.208 70.7328-21.12 105.344h32.256c6.272-34.56 12.416-68.4288 18.176-102.2464q14.976-84.48 30.336-168.8576c2.688-14.7584-2.688-21.9904-17.408-21.9904z m190.464 102.5024c15.744 0.7808 23.168-4.3904 17.92-23.04h-85.76c-0.256-2.3296-0.768-4.9024-1.024-7.232 21.888-24.5248 54.528-3.3536 81.28-14.1952 1.28-5.6832 2.816-12.3904 4.48-19.1104-7.936-1.0368-14.592-2.0608-22.144-3.0976 4.992-13.1712 9.472-24.7808 13.952-36.4032-22.784-5.9392-36.992-1.8048-41.216 21.952-1.536 9.2928-4.992 20.3904-21.632 14.1952 1.408-13.9392 2.944-28.16 4.224-43.3664h-31.104a324.6976 324.6976 0 0 1-6.784 33.5616 39.1552 39.1552 0 0 1-10.88 11.8656 41.6768 41.6768 0 0 1-8.448-11.6224 220.6208 220.6208 0 0 1-6.016-26.5856h-31.104c2.048 13.1584 3.84 24.5376 6.016 37.12-8.704 1.0368-15.872 1.8048-23.68 2.8416-1.408 6.976-2.688 13.9392-4.224 23.2448H409.6c-21.888 31.5008-51.712 11.8784-75.648 20.1344-1.408 5.4272-2.944 12.1472-5.376 21.1712h48c0.896 1.8176 1.408 3.6096 2.176 5.4144a142.8992 142.8992 0 0 1-35.328 20.1472c-20.608 5.12-25.344 17.5616-25.6 37.4272l30.592-8.96c-3.2 19.6224-5.76 36.6592-8.96 55.04h123.392a355.3536 355.3536 0 0 0-6.528 37.696c-1.152 16.2688-9.472 19.6224-24.32 18.3296s-30.336-0.2432-45.568-0.2432c-1.408 2.3168-2.432 4.6336-3.712 6.9632 6.528 5.6704 12.416 15.744 19.2 16.2688 26.368 1.8048 52.736 0.768 80 0.768 4.736-24.32 9.472-46.9888 13.696-69.7088 6.016-32.2688 6.016-32.2688-27.264-35.3664a14.9632 14.9632 0 0 1-4.736-3.84c2.688-10.0736 5.632-21.1712 8.704-32.7808 15.616 5.6704 29.056 10.8416 43.008 15.9872 3.968-10.3168 7.168-18.0608 10.368-25.8176-22.144-10.0608-45.696-14.1952-58.624-38.72 14.464-0.0768 25.856-0.5888 37.248-0.0768z m-42.496 384a43.6992 43.6992 0 0 0 24.064 61.888 93.632 93.632 0 0 0 44.672 3.3536c20.736-2.4576 21.504-2.7136 25.728-22.4768 0.384-1.9456 1.024-3.7504 2.048-7.7568a54.016 54.016 0 0 1-39.552 12.4032 29.44 29.44 0 0 1-30.08-25.1904 36.7616 36.7616 0 0 1 19.584-36.5696 46.9376 46.9376 0 0 1 57.088 4.6592c1.536-8.7936 2.816-16.9216 4.608-27.52a315.6992 315.6992 0 0 0-40.448-2.9696c-29.44 1.536-55.168 11.3536-67.712 40.1664z m169.088-467.9424c-8.192-29.9392-8.192-29.9392-42.24-26.0608 4.992 22.7072 9.728 45.4272 14.848 68.16h38.144c-3.968-15.2576-7.296-28.6848-10.752-42.112z m-26.624 208.8832c8.448-51.904 16.256-99.1488 24.192-147.6864h-49.28c-23.168-0.256-25.6 2.8416-22.912 27.8784h30.336c-11.904 64-23.296 125.2224-34.816 190.2848 24.96-17.2928 47.36-33.8176 71.168-48.7936 19.456-12.1344 17.408-30.72 21.632-51.3664-14.464 10.56-25.6 18.8288-40.32 29.6704z m218.88-227.4688c-53.504-0.256-107.136 0-162.688 0 3.072 10.8416 5.76 19.3664 8.96 29.9648h133.376c-4.992 27.3536-9.216 51.8784-14.72 76.416a15.1168 15.1168 0 0 1-11.136 8.5248c-14.464 1.024-29.184 0.4992-45.568 0.4992 1.536-28.16 22.144-62.208-26.368-69.12a373.5936 373.5936 0 0 0-10.368 50.3424 17.4848 17.4848 0 0 1-23.168 19.1104c-20.096-2.3168-24.576 8-22.144 25.8176 12.16 0.768 23.424 1.28 37.248 2.3168-9.856 51.1232-19.072 99.9168-28.544 150.016a116.6336 116.6336 0 0 1 16.384 0c16.64 2.0608 24.704-1.5616 26.88-21.1712a876.8 876.8 0 0 1 17.408-94.2336c8.96-42.6112-0.768-34.56 45.824-36.416 15.616-0.512 17.536 6.1952 14.848 18.3424-3.712 18.3168-7.168 36.6464-10.624 55.04-4.992 25.8176-9.728 51.3792-14.976 78.7456a424.3968 424.3968 0 0 1 48.256 0.256c21.632 2.8416 31.36-6.1952 32.512-28.16h-36.48c4.992-26.88 9.728-51.648 14.592-76.4288 10.24-55.04 20.48-109.9904 31.36-164.7232 3.456-17.664-3.968-25.152-20.864-25.152z m39.808 419.4688a196.6464 196.6464 0 0 1-4.224 21.9648 10.7776 10.7776 0 0 1-7.424 6.4c-8.832 0.768-17.664 0.256-28.288 0.256a62.7968 62.7968 0 0 0 12.672 16.5376 54.4768 54.4768 0 0 0 18.432 3.6224c-4.736 27.52-9.472 54.7712-14.336 83.328a197.3376 197.3376 0 0 0 23.424-0.256 9.7024 9.7024 0 0 0 6.784-6.208c2.56-11.7504 4.352-23.6416 6.4-35.392 2.432-14.2208 5.12-28.4288 7.936-42.9056H921.6c-20.224-16.4864-39.04-31.4624-58.624-47.36zM396.672 371.3408c-0.768-1.5488-1.792-2.8544-2.688-4.3904a130.4576 130.4576 0 0 1 34.304-21.952c4.992-1.28 14.592 13.6832 21.888 21.44-1.28 1.536-2.304 3.0848-3.712 4.6336-16.512-0.0128-33.152-0.0128-49.792 0.256z m33.536 56.7936h-51.968c0.512-7.744 1.024-13.952 1.536-20.9152-5.248-3.0976-10.496-6.4-20.608-12.3904h77.824c-2.304 11.8528-4.736 22.4512-6.784 33.2928z m-166.144-103.2832a244.0832 244.0832 0 0 1 8.448-48.0128c2.304-6.7072 13.696-10.3296 20.992-15.232 2.688 2.3168 4.992 4.3904 7.68 6.7072a209.5872 209.5872 0 0 1-9.728 43.8912c-2.432 5.6704-15.36 7.488-27.392 12.6336z m21.888 22.464a211.9424 211.9424 0 0 0-5.12 33.5616c-0.256 21.952-11.52 25.3184-31.36 19.6352 1.92-12.1472 3.712-23.7568 5.248-35.3792 2.432-16.7936 10.112-25.0496 31.232-17.8304z m-35.328 357.7984a28.0576 28.0576 0 0 1 28.928 0.9088 18.7776 18.7776 0 0 1 7.04 22.7328c-17.664 0-35.2 0-53.888-0.1152a29.6832 29.6832 0 0 1 17.92-23.5392z m396.416-1.9328a18.3808 18.3808 0 0 1 11.008 7.5008 28.8128 28.8128 0 0 1 3.072 16.0128 25.6 25.6 0 0 1-12.544 2.7136c-13.824 0.384-27.904 0.128-42.24 0.128a33.28 33.28 0 0 1 40.704-26.368zM102.4 660.8128l539.264-360.4736" fill="#4A78F7" p-id="6728"></path></svg>