<?xml version="1.0" standalone="no"?><!DOCTYPE svg PUBLIC "-//W3C//DTD SVG 1.1//EN" "http://www.w3.org/Graphics/SVG/1.1/DTD/svg11.dtd"><svg t="1605086986700" class="icon" viewBox="0 0 1024 1024" version="1.1" xmlns="http://www.w3.org/2000/svg" p-id="7958" xmlns:xlink="http://www.w3.org/1999/xlink" width="200" height="200"><defs><style type="text/css"></style></defs><path d="M658.193067 402.261333h292.420266c40.2432 0 73.386667 32.529067 73.386667 73.386667V950.613333A73.386667 73.386667 0 0 1 950.613333 1024H475.306667a73.386667 73.386667 0 0 1-73.386667-73.352533v-292.2496h146.193067a109.226667 109.226667 0 0 0 109.499733-109.431467l0.580267-146.705067zM0 73.386667A73.386667 73.386667 0 0 1 73.386667 0h475.306666c40.277333 0 73.386667 32.529067 73.386667 73.352533v475.0336a73.386667 73.386667 0 0 1-73.386667 73.352534H73.386667A73.386667 73.386667 0 0 1 0 548.352V73.386667z m146.193067 315.904h53.248v-28.398934h76.970666v134.8608h56.832v-134.8608h78.711467v23.6544h58.026667V205.277867H333.243733V166.229333c0-11.844267 1.774933-21.2992 4.744534-29.5936 0.580267-1.160533 1.160533-2.935467 1.774933-4.7104 0-1.194667-3.549867-1.774933-11.264-2.9696h-53.248v76.9024h-129.024v183.3984z m53.248-140.219734h76.970666v69.2224H199.4752V249.0368z m212.514133 69.2224H333.243733V249.0368h78.711467v69.2224z m232.618667 557.2608l21.9136-61.5424h114.824533l21.9136 61.5424h62.737067l-102.4-290.474666h-74.001067l-105.335467 290.474666h60.347734z m37.888-109.431466l42.632533-124.245334h1.774933l39.048534 124.245334h-83.456zM950.613333 292.829867H877.226667a146.090667 146.090667 0 0 0-146.2272-146.090667v-73.386667a219.477333 219.477333 0 0 1 219.613866 219.477334zM73.386667 731.136H146.773333a146.090667 146.090667 0 0 0 146.2272 146.090667v73.386666a219.477333 219.477333 0 0 1-219.613866-219.477333z" fill="#3882F5" p-id="7959"></path></svg>